<svg xmlns="http://www.w3.org/2000/svg" width="555.348" height="242.058" viewBox="0 0 146.936 64.045"><path fill="currentColor" fill-rule="evenodd" d="M120.58.056l26.356 63.64-52.382.268z"/><path fill="currentColor" d="M75.773.016C68.218.03 60.58-.029 53.024.02l.082 63.72c7.792-.019 15.586.037 23.378-.03 10.016-.342 18.964-8.318 20.764-18.123 1.448-6.116-.588-12.853-4.612-17.686 2.248-2.967 3.275-6.235 3.187-10.394 0-2.296-.388-4.6-1.218-6.746C92.29 4.346 85.681.27 79.011.02 77.93.017 76.852.016 75.773.017zM21.949.095C13.969.793 7.07 6.351 3.005 13.015.227 17.417-.575 23.06 1.485 27.92c.998 3.478 4.032 6.615 5.376 9.407-2.317 2.641-4.638 5.28-6.861 8.001 1.4 4.914 3.593 9.848 7.778 13.02 8.918 7.377 22.691 7.538 32.004.78 5.719-3.952 10.535-10.645 9.55-17.907-.84-5.165-4.615-9.232-8.304-12.677 2.405-2.377 4.782-4.781 7.207-7.138-.066-7.416-4.7-14.24-11.097-17.777C32.564.97 27.215-.195 21.948.095z"/></svg>